<svg width="100" height="73" viewBox="0 0 100 73" fill="none" xmlns="http://www.w3.org/2000/svg">
<path fill-rule="evenodd" clip-rule="evenodd" d="M0 73L52 0L100 73H0Z" fill="url(#paint0_linear_167_841)"/>
<path opacity="0.8" d="M32 56.5C14.0713 58.3872 5.66667 67.3333 0 73L52 0L68.5 25C57.5 29 59.0829 36.8066 56 44C54.5 47.5 51 54.5 32 56.5Z" fill="url(#paint1_linear_167_841)"/>
<path opacity="0.8" d="M37.5 61.4895C20.7033 58.8857 5.66667 67.2448 0 73H61C60 71.0816 51 63.5823 37.5 61.4895Z" fill="url(#paint2_linear_167_841)"/>
<defs>
<linearGradient id="paint0_linear_167_841" x1="0" y1="0" x2="34.3628" y2="96.3977" gradientUnits="userSpaceOnUse">
<stop stopColor="#FAEB0B"/>
<stop offset="1" stopColor="#FE009D"/>
</linearGradient>
<linearGradient id="paint1_linear_167_841" x1="3.77358" y1="67.2368" x2="68.7514" y2="19.3726" gradientUnits="userSpaceOnUse">
<stop stopColor="white" stopOpacity="0.65"/>
<stop offset="1" stopColor="white" stopOpacity="0.1"/>
</linearGradient>
<linearGradient id="paint2_linear_167_841" x1="61" y1="71.5" x2="1.5" y2="73" gradientUnits="userSpaceOnUse">
<stop stopColor="white" stopOpacity="0.5"/>
<stop offset="1" stopColor="white" stopOpacity="0"/>
</linearGradient>
</defs>
</svg>
