<svg width="53" height="38" viewBox="0 0 53 38" fill="none" xmlns="http://www.w3.org/2000/svg">
<path fill-rule="evenodd" clip-rule="evenodd" d="M0 38L27.56 0L53 38H0Z" fill="url(#paint0_linear_167_849)"/>
<path opacity="0.8" d="M16.96 29.411C7.45779 30.3934 3.00333 35.0502 0 38L27.56 0L36.305 13.0137C30.475 15.0959 31.3139 19.1596 29.68 22.9041C28.885 24.726 27.03 28.3699 16.96 29.411Z" fill="url(#paint1_linear_167_849)"/>
<path opacity="0.8" d="M19.875 32.0082C10.9728 30.6528 3.00333 35.0041 0 38H32.33C31.8 37.0014 27.03 33.0976 19.875 32.0082Z" fill="url(#paint2_linear_167_849)"/>
<defs>
<linearGradient id="paint0_linear_167_849" x1="0" y1="0" x2="17.6388" y2="50.3804" gradientUnits="userSpaceOnUse">
<stop stopColor="#FAEB0B"/>
<stop offset="1" stopColor="#FE009D"/>
</linearGradient>
<linearGradient id="paint1_linear_167_849" x1="2" y1="35" x2="36" y2="9.5" gradientUnits="userSpaceOnUse">
<stop stopColor="white" stopOpacity="0.65"/>
<stop offset="1" stopColor="white" stopOpacity="0"/>
</linearGradient>
<linearGradient id="paint2_linear_167_849" x1="32.33" y1="37.2192" x2="0.795733" y2="38.0286" gradientUnits="userSpaceOnUse">
<stop stopColor="white" stopOpacity="0.55"/>
<stop offset="1" stopColor="white" stopOpacity="0"/>
</linearGradient>
</defs>
</svg>
